<svg xmlns="http://www.w3.org/2000/svg" width="420" height="372" viewBox="0 0 420 372" role="img" aria-label="Example: in macOS's Not Opened window, click Done"><title>Example: in macOS's Not Opened window, click Done</title><g font-family="-apple-system, BlinkMacSystemFont, 'SF Pro Text', 'Helvetica Neue', 'Segoe UI', Arial, sans-serif"><rect x="61" y="15" width="300" height="330" rx="14" fill="#000000" opacity="0.16"/><rect x="60" y="10" width="300" height="330" rx="14" fill="#f2f2f4" stroke="#b9b9be"/><path d="M183.0 50.28 h54 v33.48 q0 6 -6 6 h-42 q-6 0 -6 -6 z" fill="#c79a5b" stroke="#8a6332" stroke-width="1.5"/><path d="M183.0 50.28 l7.5600000000000005 -16.2 h38.879999999999995 l7.5600000000000005 16.2 z" fill="#e0b97c" stroke="#8a6332" stroke-width="1.5"/><rect x="205.0" y="34.08" width="10" height="27.0" fill="#8a6332" opacity="0.55"/><text x="210.0" y="114" font-size="13.5" fill="#1d1d1f" font-weight="700" text-anchor="middle">“ArthurLegal-Kurulum.pkg” Not</text><text x="210.0" y="132" font-size="13.5" fill="#1d1d1f" font-weight="700" text-anchor="middle">Opened</text><text x="210.0" y="156" font-size="11.5" fill="#1d1d1f" font-weight="400" text-anchor="middle">Apple could not verify</text><text x="210.0" y="172" font-size="11.5" fill="#1d1d1f" font-weight="400" text-anchor="middle">“ArthurLegal-Kurulum.pkg” is free of</text><text x="210.0" y="188" font-size="11.5" fill="#1d1d1f" font-weight="400" text-anchor="middle">malware that may harm your Mac or</text><text x="210.0" y="204" font-size="11.5" fill="#1d1d1f" font-weight="400" text-anchor="middle">compromise your privacy.</text><rect x="78" y="256" width="264" height="28" rx="7" fill="#007aff"/><text x="210.0" y="275" font-size="13" fill="#ffffff" font-weight="600" text-anchor="middle">Done</text><rect x="78" y="292" width="264" height="28" rx="7" fill="#e3e3e8"/><text x="210.0" y="311" font-size="13" fill="#1d1d1f" font-weight="400" text-anchor="middle">Move to Trash</text><rect x="73" y="251" width="274" height="38" rx="7" fill="none" stroke="#e5243b" stroke-width="3"/><circle cx="59" cy="270.0" r="13" fill="#e5243b"/><text x="59" y="275.0" font-size="15" fill="#ffffff" font-weight="700" text-anchor="middle">1</text><text x="210.0" y="364" font-size="12" fill="#8b949e" font-weight="400" text-anchor="middle">Drawing · macOS first-launch warning (example)</text></g></svg>
