<svg xmlns="http://www.w3.org/2000/svg" width="420" height="360" viewBox="0 0 420 360" role="img" aria-label="Example: in macOS's Not Opened window, click Done, not the blue Move to Trash"><title>Example: in macOS's Not Opened window, click Done, not the blue Move to Trash</title><g font-family="-apple-system, BlinkMacSystemFont, 'SF Pro Text', 'Helvetica Neue', 'Segoe UI', Arial, sans-serif"><rect x="56" y="15" width="310" height="316" rx="14" fill="#000000" opacity="0.16"/><rect x="55" y="10" width="310" height="316" rx="14" fill="#ececee" stroke="#b9b9be"/><circle cx="339" cy="36" r="9" fill="#ffffff" stroke="#c7c7cc"/><text x="339" y="40.5" font-size="12" fill="#3a3a3c" font-weight="600" text-anchor="middle">?</text><path d="M210.0 37.0 L238.0 83.0 Q240.0 87.0 235.0 87.0 H185.0 Q180.0 87.0 182.0 83.0 Z" fill="#ffcc00" stroke="#d9a400" stroke-width="1.5" stroke-linejoin="round"/><rect x="207.0" y="52.0" width="6" height="19.0" rx="3" fill="#3a3a3c"/><circle cx="210.0" cy="78.0" r="3.4" fill="#3a3a3c"/><text x="210.0" y="120" font-size="13" fill="#1d1d1f" font-weight="700" text-anchor="middle">“ArthurLegal-Kurulum.pkg”</text><text x="210.0" y="137" font-size="13" fill="#1d1d1f" font-weight="700" text-anchor="middle">Not Opened</text><text x="210.0" y="160" font-size="11" fill="#1d1d1f" font-weight="400" text-anchor="middle">Apple could not verify</text><text x="210.0" y="175" font-size="11" fill="#1d1d1f" font-weight="400" text-anchor="middle">“ArthurLegal-Kurulum.pkg” is free of malware</text><text x="210.0" y="190" font-size="11" fill="#1d1d1f" font-weight="400" text-anchor="middle">that may harm your Mac or compromise your</text><text x="210.0" y="205" font-size="11" fill="#1d1d1f" font-weight="400" text-anchor="middle">privacy.</text><rect x="73" y="280" width="132.0" height="28" rx="7" fill="#dcdce0"/><text x="139.0" y="298.5" font-size="12" fill="#1d1d1f" font-weight="500" text-anchor="middle">Done</text><rect x="215.0" y="280" width="132.0" height="28" rx="7" fill="#007aff"/><text x="281.0" y="298.5" font-size="12" fill="#ffffff" font-weight="500" text-anchor="middle">Move to Trash</text><rect x="68" y="275" width="142.0" height="38" rx="7" fill="none" stroke="#e5243b" stroke-width="3"/><circle cx="54" cy="294.0" r="13" fill="#e5243b"/><text x="54" y="299.0" font-size="15" fill="#ffffff" font-weight="700" text-anchor="middle">1</text><text x="210.0" y="352" font-size="12" fill="#8b949e" font-weight="400" text-anchor="middle">Drawing · macOS first-launch warning (example)</text></g></svg>
